<?xml version="1.0" encoding="UTF-8" standalone="no"?>
<svg
   height="18"
   width="16"
   viewBox="0 0 512 576"
   version="1.1"
   id="svg1"
   sodipodi:docname="envelope-regular-aligned.svg"
   inkscape:version="1.3 (0e150ed6c4, 2023-07-21)"
   xmlns:inkscape="http://www.inkscape.org/namespaces/inkscape"
   xmlns:sodipodi="http://sodipodi.sourceforge.net/DTD/sodipodi-0.dtd"
   xmlns="http://www.w3.org/2000/svg"
   xmlns:svg="http://www.w3.org/2000/svg">
  <defs
     id="defs1" />
  <sodipodi:namedview
     id="namedview1"
     pagecolor="#ffffff"
     bordercolor="#000000"
     borderopacity="0.25"
     inkscape:showpageshadow="2"
     inkscape:pageopacity="0.0"
     inkscape:pagecheckerboard="0"
     inkscape:deskcolor="#d1d1d1"
     inkscape:zoom="73.3125"
     inkscape:cx="7.9931799"
     inkscape:cy="10.182438"
     inkscape:window-width="2560"
     inkscape:window-height="1369"
     inkscape:window-x="-8"
     inkscape:window-y="-8"
     inkscape:window-maximized="1"
     inkscape:current-layer="svg1" />
  <!--!Font Awesome Free 6.5.0 by @fontawesome - https://fontawesome.com License - https://fontawesome.com/license/free Copyright 2023 Fonticons, Inc.-->
  <path
     d="m 64,182.27451 c -8.8,0 -16,7.2 -16,16 v 22.1 l 172.5,141.6 c 20.7,17 50.4,17 71.1,0 l 172.4,-141.6 v -22.1 c 0,-8.8 -7.2,-16 -16,-16 z m -16,100.2 v 171.8 c 0,8.8 7.2,16 16,16 h 384 c 8.8,0 16,-7.2 16,-16 v -171.8 l -142,116.6 c -38.4,31.5 -93.7,31.5 -132,0 z m -48,-84.2 c 0,-35.3 28.7,-64 64,-64 h 384 c 35.3,0 64,28.7 64,64 v 256 c 0,35.3 -28.7,64 -64,64 H 64 c -35.3,0 -64,-28.7 -64,-64 z"
     id="path1"
     inkscape:label="path1" />
</svg>
