<?xml version="1.0" encoding="UTF-8" standalone="no"?>
<svg
   height="18"
   width="14"
   viewBox="0 0 448 576"
   version="1.1"
   id="svg1"
   sodipodi:docname="linkedin-aligned.svg"
   inkscape:version="1.3 (0e150ed6c4, 2023-07-21)"
   xmlns:inkscape="http://www.inkscape.org/namespaces/inkscape"
   xmlns:sodipodi="http://sodipodi.sourceforge.net/DTD/sodipodi-0.dtd"
   xmlns="http://www.w3.org/2000/svg"
   xmlns:svg="http://www.w3.org/2000/svg">
  <defs
     id="defs1" />
  <sodipodi:namedview
     id="namedview1"
     pagecolor="#ffffff"
     bordercolor="#000000"
     borderopacity="0.25"
     inkscape:showpageshadow="2"
     inkscape:pageopacity="0.0"
     inkscape:pagecheckerboard="0"
     inkscape:deskcolor="#d1d1d1"
     inkscape:zoom="73.3125"
     inkscape:cx="6.9974425"
     inkscape:cy="5.8175618"
     inkscape:window-width="2560"
     inkscape:window-height="1369"
     inkscape:window-x="-8"
     inkscape:window-y="-8"
     inkscape:window-maximized="1"
     inkscape:current-layer="svg1" />
  <!--!Font Awesome Free 6.5.0 by @fontawesome - https://fontawesome.com License - https://fontawesome.com/license/free Copyright 2023 Fonticons, Inc.-->
  <path
     d="M 416,95.727195 H 31.9 C 14.3,95.727195 0,110.2272 0,128.0272 v 383.4 c 0,17.8 14.3,32.3 31.9,32.3 H 416 c 17.6,0 32,-14.5 32,-32.3 v -383.4 c 0,-17.8 -14.4,-32.300005 -32,-32.300005 z M 135.4,479.7272 H 69 v -213.8 h 66.5 v 213.8 z m -33.2,-243 c -21.3,0 -38.5,-17.3 -38.5,-38.5 0,-21.2 17.2,-38.5 38.5,-38.5 21.2,0 38.5,17.3 38.5,38.5 0,21.3 -17.2,38.5 -38.5,38.5 z m 282.1,243 h -66.4 v -104 c 0,-24.8 -0.5,-56.7 -34.5,-56.7 -34.6,0 -39.9,27 -39.9,54.9 v 105.8 h -66.4 v -213.8 h 63.7 v 29.2 h 0.9 c 8.9,-16.8 30.6,-34.5 62.9,-34.5 67.2,0 79.7,44.3 79.7,101.9 z"
     id="path1" />
</svg>
